<svg xmlns="http://www.w3.org/2000/svg" width="64" height="59" viewBox="0 0 64 59">
    <g fill="none" fill-rule="evenodd">
        <path fill="#FBE2CB" d="M59.5 28.191c0-15.188-12.312-27.5-27.5-27.5S4.5 13.003 4.5 28.191c0 9.396 4.715 17.687 11.905 22.647h31.191C54.785 45.878 59.5 37.587 59.5 28.191z"/>
        <path stroke="#2D346A" stroke-linecap="round" stroke-width="1.5" d="M14.206 50.838h35.588"/>
        <path stroke="#C3CCE9" stroke-linecap="round" stroke-linejoin="round" stroke-width="1.5" d="M20.375 54.074h23.25M27.641 57.309h4.673M35.166 57.309h1.249"/>
        <path fill="#C3CCE9" d="M32 9.463a18.463 18.463 0 0 0-11.928 4.338c-7.842 6.587-8.859 18.285-2.271 26.127L32 28V9.463z"/>
        <path fill="#E4C95C" d="M17.801 39.928c6.588 7.842 18.285 8.859 26.127 2.271a18.584 18.584 0 0 0 2.26-2.283L32 28 17.801 39.928z"/>
        <path fill="#E8F3FF" d="M46.199 16.072C42.533 11.708 37.285 9.465 32 9.463V28l14.187 11.916c5.696-6.767 5.897-16.839.012-23.844z"/>
        <path stroke="#2D346A" stroke-linecap="round" stroke-linejoin="round" stroke-width="1.5" d="M48.334 19.212c4.087 7.577 2.445 17.232-4.406 22.987-7.842 6.587-19.539 5.571-26.127-2.271-6.588-7.842-5.571-19.539 2.271-26.127 7.842-6.588 19.539-5.571 26.127 2.271"/>
        <g stroke="#2D346A" stroke-linejoin="round" stroke-width="1.5">
            <path d="M32 28V9.459M32 28L17.801 39.928M32 28l14.201 11.928"/>
        </g>
        <path stroke="#2D346A" stroke-linecap="round" stroke-linejoin="round" stroke-width="1.5" d="M17.807 16.072l14.187 11.916M21.645 12.616l10.349 8.693M26.739 10.215L32 14.634M13.506 26.66l10.046 8.437M14.807 21.072l12.721 10.685"/>
        <path fill="#E4C95C" d="M61.6 11.303c-.002-.201-.071-1.202-1.2-1.202H60.39h-.002a.4.4 0 0 1 .01-.8c.201-.002 1.202-.071 1.202-1.2a.4.4 0 1 1 .8 0c0 1.129 1.001 1.198 1.202 1.2a.4.4 0 0 1-.002.8c-1.129 0-1.198 1.002-1.2 1.2V11.313a.4.4 0 0 1-.8-.01zM59.3 46.851c-.001-.101-.036-.601-.6-.601h-.005a.2.2 0 0 1 .004-.4c.101-.001.601-.036.601-.6a.2.2 0 0 1 .2-.2.2.2 0 0 1 .2.2c0 .564.5.599.601.6a.2.2 0 0 1-.001.4c-.565 0-.599.501-.6.6v.001l-.001.003h.001v.002a.2.2 0 0 1-.4-.005zM6.3 11.224c-.001-.101-.036-.601-.6-.601h-.005a.2.2 0 0 1 .004-.4c.101-.001.601-.036.601-.6a.2.2 0 0 1 .2-.2.2.2 0 0 1 .2.2c0 .564.5.599.601.6a.2.2 0 0 1-.001.4c-.565 0-.599.501-.6.6v.001a.01.01 0 0 1-.001.003H6.7v.002a.2.2 0 0 1-.4-.005zM1.6 42.626c-.002-.201-.071-1.202-1.2-1.202H.39.388a.4.4 0 0 1 .01-.8c.201-.002 1.202-.071 1.202-1.2a.4.4 0 1 1 .8 0c0 1.129 1.001 1.198 1.202 1.2a.4.4 0 0 1-.002.8c-1.129 0-1.198 1.002-1.2 1.2V42.636a.4.4 0 0 1-.8-.01zM54.7 33.359c-.002-.201-.071-1.202-1.2-1.202H53.49h-.002a.4.4 0 0 1 .01-.8c.201-.002 1.202-.071 1.202-1.2a.4.4 0 1 1 .8 0c0 1.129 1.001 1.198 1.202 1.2a.4.4 0 0 1-.002.8c-1.129 0-1.198 1.002-1.2 1.2V33.369a.4.4 0 0 1-.8-.01z"/>
    </g>
</svg>
