<svg xmlns="http://www.w3.org/2000/svg" width="65" height="60" viewBox="0 0 65 60">
    <g fill="none" fill-rule="evenodd">
        <path fill="#FF7089" d="M27.965 17.65s-5.901-9.74-15.434-8.412c-9.533 1.328-15.36 13.12-7.001 26.4 8.358 13.28 22.435 20.565 22.435 20.565.014-.007 14.082-7.292 22.435-20.565 8.358-13.28 2.532-25.072-7-26.4-9.534-1.328-15.435 8.411-15.435 8.411z"/>
        <path fill="#601D47" fill-rule="nonzero" d="M30.852 12.536c3.66-3.32 7.93-5.091 12.703-4.426 5.197.724 9.389 4.304 11.128 9.482 1.845 5.492.78 12.135-3.325 18.655-3.735 5.935-8.815 11.129-14.617 15.556a70.621 70.621 0 0 1-5.848 4.022c-1.121.689-2.167 1.275-2.441 1.406l-.507.243-.499-.259a41.204 41.204 0 0 1-1.273-.71 62.938 62.938 0 0 1-3.285-2.058 70.942 70.942 0 0 1-9.947-8.012c-3.247-3.15-6.078-6.547-8.37-10.188-4.103-6.52-5.168-13.163-3.324-18.655 1.74-5.178 5.931-8.758 11.128-9.482 4.773-.665 9.043 1.106 12.703 4.426a23.78 23.78 0 0 1 2.842 3.082c.9-1.051 1.85-2.1 2.932-3.082zM29.71 53.88a68.365 68.365 0 0 0 5.66-3.893c5.602-4.274 10.498-9.28 14.072-14.959 3.755-5.966 4.707-11.902 3.093-16.709-1.468-4.37-4.957-7.35-9.291-7.953-4.02-.56-7.666.953-10.873 3.86a21.525 21.525 0 0 0-2.57 2.787c-.255.33-.475.637-.66.91a8.623 8.623 0 0 0-.208.318l-.968 1.598-.968-1.598c-.031-.051-.1-.16-.208-.319a18.23 18.23 0 0 0-.66-.91c-.733-.95-1.593-1.9-2.57-2.786-3.206-2.907-6.853-4.42-10.872-3.86-4.335.604-7.823 3.583-9.291 7.953-1.615 4.807-.663 10.743 3.092 16.71 2.189 3.477 4.904 6.736 8.028 9.766a68.695 68.695 0 0 0 9.628 7.753 60.683 60.683 0 0 0 3.166 1.984c.238.14.457.264.655.374a50.323 50.323 0 0 0 1.745-1.026z"/>
        <path fill="#FFF" fill-rule="nonzero" d="M41.57 16.33c-.626 0-1.134-.51-1.134-1.14 0-.63.508-1.14 1.134-1.14 4.8 0 8.692 3.911 8.692 8.735 0 .629-.508 1.14-1.134 1.14-.626 0-1.134-.511-1.134-1.14 0-3.566-2.876-6.456-6.424-6.456zm7.18 11.392c-.626 0-1.134-.51-1.134-1.14 0-.629.508-1.139 1.134-1.139.626 0 1.134.51 1.134 1.14 0 .628-.508 1.139-1.134 1.139z"/>
        <path fill="#601C47" fill-rule="nonzero" d="M43.704 22.631c.278.1.577.154.889.154.626 0 1.134.51 1.134 1.14 0 .628-.508 1.138-1.134 1.138-2.713 0-4.913-2.21-4.913-4.936 0-.63.508-1.14 1.134-1.14.626 0 1.134.51 1.134 1.14 0 .313.054.614.153.893L53.663 9.402V4.177c0-.629.507-1.139 1.134-1.139.626 0 1.133.51 1.133 1.14v2.945l.756-.76V1.14C56.686.51 57.194 0 57.82 0c.626 0 1.133.51 1.133 1.14v2.945l1.088-1.093a1.13 1.13 0 0 1 1.604 0 1.143 1.143 0 0 1 0 1.611l-1.088 1.093h2.931c.627 0 1.134.51 1.134 1.14 0 .629-.507 1.139-1.134 1.139H58.29l-.755.76h2.931c.626 0 1.134.51 1.134 1.138 0 .63-.508 1.14-1.134 1.14h-5.199L43.704 22.63zM8.895 54.387l13.157-13.22a2.63 2.63 0 0 0-.89-.154c-.625 0-1.133-.51-1.133-1.14 0-.629.508-1.139 1.134-1.139 2.713 0 4.913 2.21 4.913 4.937 0 .63-.508 1.14-1.134 1.14-.626 0-1.134-.51-1.134-1.14 0-.313-.054-.614-.153-.893l-13.157 13.22 3.587-.9a1.14 1.14 0 0 1 .55 2.21L7.097 59.2a1.129 1.129 0 0 1-.038.01l-1.815.456.454-1.824.01-.038 1.884-7.575a1.133 1.133 0 1 1 2.2.553l-.897 3.604z"/>
    </g>
</svg>
