<svg xmlns="http://www.w3.org/2000/svg" width="67" height="67" viewBox="0 0 67 67">
    <g fill="none" fill-rule="evenodd">
        <path fill="#FFF0F0" d="M33.5 0c6.217 0 12.012 1.65 16.975 4.54a33.224 33.224 0 0 1 11.984 11.985C65.35 21.488 67 27.283 67 33.5c0 6.217-1.65 12.012-4.54 16.975a33.224 33.224 0 0 1-11.985 11.984C45.512 65.35 39.717 67 33.5 67c-6.217 0-12.012-1.65-16.975-4.54A33.224 33.224 0 0 1 4.541 50.474C1.65 45.512 0 39.717 0 33.5c0-6.217 1.65-12.012 4.54-16.975A33.224 33.224 0 0 1 16.526 4.541C21.488 1.65 27.283 0 33.5 0z"/>
        <path fill="#000" d="M20.094 34.537c-.004-.091-.004-.187-.004-.278 0-7.478 6.069-13.547 13.546-13.547 7.474 0 13.547 6.07 13.547 13.547 0 7.478-6.073 13.547-13.547 13.547-.119 0-.242-.004-.36-.004C40.2 47.615 45.77 41.864 45.77 34.81c0-7.168-5.755-12.991-12.84-12.991-6.998 0-12.693 5.672-12.836 12.717z"/>
        <path fill="#FFA3A6" d="M47.966 34.443c0 7.93-6.438 14.368-14.368 14.368-7.93 0-14.368-6.438-14.368-14.368 0-7.93 6.438-14.368 14.368-14.368v14.368h14.368z"/>
        <path fill="#000" d="M33.045 34.296c-.18-1.496-.298-3.894-.298-6.594 0-4.532.33-8.21.735-8.21.406 0 .735 3.678.735 8.21 0 2.612-.11 4.94-.28 6.445 1.494-.197 3.91-.325 6.635-.325 4.532 0 8.21.354 8.21.79 0 .436-3.678.79-8.21.79-2.804 0-5.283-.136-6.764-.342-.098.545-.21.852-.326.852-.125 0-.243-.35-.346-.965-.496-.101-.774-.215-.774-.335 0-.112.244-.22.683-.316z"/>
    </g>
</svg>
