<svg xmlns="http://www.w3.org/2000/svg" width="67" height="67" viewBox="0 0 67 67">
    <g fill="none" fill-rule="evenodd">
        <path fill="#FFF0F0" d="M33.5 0c6.217 0 12.012 1.65 16.975 4.54a33.224 33.224 0 0 1 11.984 11.985C65.35 21.488 67 27.283 67 33.5c0 6.217-1.65 12.012-4.54 16.975a33.224 33.224 0 0 1-11.985 11.984C45.512 65.35 39.717 67 33.5 67c-6.217 0-12.012-1.65-16.975-4.54A33.224 33.224 0 0 1 4.541 50.474C1.65 45.512 0 39.717 0 33.5c0-6.217 1.65-12.012 4.54-16.975A33.224 33.224 0 0 1 16.526 4.541C21.488 1.65 27.283 0 33.5 0z"/>
        <path fill="#FFA3A6" d="M44.097 22.365V43.57H21.98v-6.982h7.333v-6.375h7.225v-7.848z"/>
        <path fill="#000" d="M43.204 43.38c-.13-2.813-.256-6.783-.422-11.06-.147-3.814-.22-9.095-.243-10.997h-.125c-.56.001-1.153-.431-1.014-.787.205-.527 1.491-2.37 2.246-2.373.756 0 2.072 1.839 2.285 2.364.143.355-.453.79-1.011.791h-.18a923.698 923.698 0 0 1-.273 11.534c-.138 4.168-.27 7.905-.41 10.567 2.206.11 3.545.253 3.545.41 0 .16-1.358.304-3.592.413-.122 2.07-.253 3.306-.4 3.307-.143 0-.255-1.235-.361-3.272-2.539.107-5.983.172-9.774.172-7.798 0-14.128-.277-14.128-.62 0-.341 6.33-.619 14.128-.619 3.769 0 7.195.065 9.73.17z"/>
    </g>
</svg>
