<svg xmlns="http://www.w3.org/2000/svg" width="67" height="67" viewBox="0 0 67 67">
    <g fill="none" fill-rule="evenodd">
        <path fill="#FFF0F0" d="M33.5 0c6.217 0 12.012 1.65 16.975 4.54a33.224 33.224 0 0 1 11.984 11.985C65.35 21.488 67 27.283 67 33.5c0 6.217-1.65 12.012-4.54 16.975a33.224 33.224 0 0 1-11.985 11.984C45.512 65.35 39.717 67 33.5 67c-6.217 0-12.012-1.65-16.975-4.54A33.224 33.224 0 0 1 4.541 50.474C1.65 45.512 0 39.717 0 33.5c0-6.217 1.65-12.012 4.54-16.975A33.224 33.224 0 0 1 16.526 4.541C21.488 1.65 27.283 0 33.5 0z"/>
        <path fill="#FFA3A6" d="M36.566 21.118c4.24 0 7.683 3.339 7.683 7.452 0 4.112-3.443 7.451-7.683 7.451s-7.683-3.34-7.683-7.451c0-4.113 3.443-7.452 7.683-7.452zm4.45 5.996c.934 0 1.692.77 1.692 1.718s-.758 1.718-1.691 1.718-1.69-.77-1.69-1.718.757-1.718 1.69-1.718z"/>
        <path fill="#000" d="M28.557 34.03a10.234 10.234 0 0 1-1.762-5.762c0-5.615 4.486-10.173 10.011-10.173 5.525 0 10.01 4.558 10.01 10.173 0 5.614-4.485 10.172-10.01 10.172a9.87 9.87 0 0 1-6.357-2.316l-9.867 9.115c-.75.763-1.56 1.18-2.016.715-.457-.469-.047-1.286.703-2.048l9.288-9.877zm7.92-13.942c4.724 0 8.56 3.825 8.56 8.537 0 4.711-3.836 8.536-8.56 8.536-4.723 0-8.558-3.825-8.558-8.536 0-4.712 3.835-8.537 8.558-8.537z"/>
    </g>
</svg>
