<svg xmlns="http://www.w3.org/2000/svg" width="67" height="67" viewBox="0 0 67 67">
    <g fill="none" fill-rule="evenodd">
        <path fill="#FFF0F0" d="M33.5 0c6.217 0 12.012 1.65 16.975 4.54a33.224 33.224 0 0 1 11.984 11.985C65.35 21.488 67 27.283 67 33.5c0 6.217-1.65 12.012-4.54 16.975a33.224 33.224 0 0 1-11.985 11.984C45.512 65.35 39.717 67 33.5 67c-6.217 0-12.012-1.65-16.975-4.54A33.224 33.224 0 0 1 4.541 50.474C1.65 45.512 0 39.717 0 33.5c0-6.217 1.65-12.012 4.54-16.975A33.224 33.224 0 0 1 16.526 4.541C21.488 1.65 27.283 0 33.5 0z"/>
        <path fill="#FFA3A6" d="M33.582 36.364a2.573 2.573 0 0 1 2.578 2.565 2.573 2.573 0 0 1-2.578 2.565 2.573 2.573 0 0 1-2.577-2.565 2.573 2.573 0 0 1 2.577-2.565zm-10.63-5.13a2.447 2.447 0 0 1 2.452 2.44 2.447 2.447 0 0 1-2.451 2.439 2.447 2.447 0 0 1-2.452-2.44 2.447 2.447 0 0 1 2.452-2.44zm21.563-7.593a2.573 2.573 0 0 1 2.578 2.565 2.573 2.573 0 0 1-2.578 2.565 2.573 2.573 0 0 1-2.577-2.565 2.573 2.573 0 0 1 2.577-2.565z"/>
        <path fill="#000" d="M22.423 29.728c.069-5.96.298-10.344.57-10.344.272 0 .501 4.377.57 10.33.829.11 1.631.487 2.268 1.129 1.51 1.522 1.514 3.954.01 5.432a3.784 3.784 0 0 1-2.28 1.067c-.07 5.88-.298 10.188-.568 10.188-.27 0-.499-4.333-.57-10.24a3.923 3.923 0 0 1-2.041-1.093c-1.51-1.521-1.514-3.953-.01-5.432a3.778 3.778 0 0 1 2.05-1.037zm21.714-7.378c.102-1.993.232-3.19.374-3.19.143 0 .273 1.2.375 3.196.87.09 1.717.472 2.384 1.143 1.51 1.521 1.513 3.954.009 5.432a3.78 3.78 0 0 1-2.192 1.057c.01 1.042.016 2.13.016 3.246 0 7.767-.265 14.073-.592 14.073-.326 0-.591-6.306-.591-14.073 0-1.127.006-2.224.016-3.275a3.92 3.92 0 0 1-2.116-1.106c-1.51-1.521-1.514-3.953-.009-5.432a3.782 3.782 0 0 1 2.326-1.07zM33.18 35.01c-.002-.51-.003-1.027-.003-1.552 0-7.467.264-13.528.59-13.528.327 0 .592 6.061.592 13.528 0 .54-.001 1.072-.004 1.596a3.92 3.92 0 0 1 2.056 1.095c1.51 1.522 1.514 3.954.01 5.432a3.782 3.782 0 0 1-2.219 1.06c-.108 2.672-.263 4.345-.434 4.345-.172 0-.326-1.671-.434-4.34a3.921 3.921 0 0 1-2.372-1.143c-1.51-1.521-1.514-3.953-.01-5.432a3.784 3.784 0 0 1 2.228-1.061zm2.65 6.246c1.217-1.196 1.19-3.188-.062-4.45-1.252-1.26-3.254-1.314-4.471-.118-1.217 1.196-1.19 3.189.063 4.45 1.251 1.261 3.253 1.314 4.47.118zM25.25 35.95c1.217-1.196 1.189-3.188-.063-4.45-1.251-1.26-3.253-1.314-4.47-.118-1.217 1.196-1.19 3.189.062 4.45 1.252 1.261 3.254 1.314 4.47.118zm21.438-7.344c1.218-1.196 1.19-3.188-.062-4.45-1.251-1.261-3.253-1.314-4.47-.118-1.218 1.197-1.19 3.189.062 4.45 1.251 1.262 3.253 1.314 4.47.118z"/>
    </g>
</svg>
