<svg xmlns="http://www.w3.org/2000/svg" width="148" height="77" viewBox="0 0 148 77">
    <g fill="none" fill-rule="evenodd">
        <path fill="#F3F7FF" d="M114.172 61.954h-73.46a6.195 6.195 0 0 1 0-12.39H6.196a6.195 6.195 0 0 1 0-12.392h35.403a6.195 6.195 0 1 0 0-12.39H19.47a6.195 6.195 0 0 1 0-12.391h35.403a6.195 6.195 0 0 1 0-12.391h86.735a6.195 6.195 0 1 1 0 12.39h-35.402a6.195 6.195 0 0 1 0 12.392h19.471a6.195 6.195 0 0 1 0 12.39h-9.004c-4.315 0-7.812 2.774-7.812 6.196 0 2.28 1.77 4.346 5.31 6.195a6.195 6.195 0 0 1 0 12.391zm27.437-24.782a6.195 6.195 0 1 1 0-12.39 6.195 6.195 0 0 1 0 12.39z"/>
        <g transform="translate(35.402 .885)">
            <circle cx="29.649" cy="29.649" r="29.649" fill="#F3F7FF" stroke="#75A4FE"/>
            <path fill="#FFF" stroke="#75A4FE" stroke-linecap="round" d="M24.899 52.656c1.556.287 3.14.436 4.75.447 12.954 0 23.454-10.5 23.454-23.454 0-12.953-10.5-23.454-23.454-23.454-3.327 0-6.493.693-9.36 1.943a23.546 23.546 0 0 0-11.53 10.84 23.354 23.354 0 0 0-2.564 10.671 23.367 23.367 0 0 0 5.916 15.574"/>
            <path stroke="#75A4FE" stroke-linecap="round" d="M14.867 47.86a23.43 23.43 0 0 0 6.375 3.692"/>
            <path stroke="#A4C3FE" stroke-linecap="round" d="M30.092 13.276c-1.525 0-3.002.203-4.406.583-7.15 1.936-12.41 8.47-12.41 16.233"/>
            <path stroke="#75A4FE" stroke-width="2.213" d="M53.989 53.103l5.31 5.31"/>
            <path fill="#E8F0FE" stroke="#75A4FE" d="M58.012 57.127a4.896 4.896 0 0 0 0 6.924l9.811 9.81a4.896 4.896 0 1 0 6.924-6.923l-9.811-9.811a4.896 4.896 0 0 0-6.924 0z"/>
            <path stroke="#FFF" stroke-linecap="round" stroke-width="2.213" d="M62.84 59.299l9.735 9.735"/>
        </g>
        <path stroke="#A4C3FE" stroke-linecap="round" stroke-linejoin="round" d="M118.155 23.897h-15.201 15.201zm6.196 0h-1.966 1.966zm-11.793 6.883h-7.236 7.236zM28.764 42.483H13.563h15.201zm-20.356 0H4.672h3.736zm24.495 7.768h-7.236 7.236z"/>
    </g>
</svg>
