<svg xmlns="http://www.w3.org/2000/svg" width="117" height="71" viewBox="0 0 117 71">
    <g fill="none" fill-rule="evenodd">
        <path fill="#F3F7FF" d="M90.377 59.752h-58.15c-2.708 0-4.904-2.203-4.904-4.92 0-2.718 2.196-4.921 4.905-4.921H4.904C2.196 49.91 0 47.708 0 44.99c0-2.719 2.196-4.922 4.904-4.922h28.024c2.709 0 4.904-2.203 4.904-4.92 0-2.718-2.195-4.921-4.904-4.921H15.413c-2.708 0-4.904-2.203-4.904-4.921 0-2.718 2.196-4.92 4.904-4.92h28.024c-2.708 0-4.904-2.204-4.904-4.922 0-2.717 2.196-4.92 4.904-4.92h68.659c2.708 0 4.904 2.203 4.904 4.92 0 2.718-2.196 4.921-4.904 4.921H84.072c2.708 0 4.904 2.203 4.904 4.92 0 2.719-2.196 4.922-4.904 4.922h15.413c2.709 0 4.904 2.203 4.904 4.92 0 2.718-2.195 4.921-4.904 4.921h-7.128c-3.415 0-6.183 2.203-6.183 4.921 0 1.812 1.4 3.452 4.203 4.92 2.709 0 4.904 2.204 4.904 4.922 0 2.717-2.195 4.92-4.904 4.92zm21.719-19.683c-2.709 0-4.904-2.203-4.904-4.92 0-2.718 2.195-4.921 4.904-4.921 2.708 0 4.904 2.203 4.904 4.92 0 2.718-2.196 4.921-4.904 4.921z"/>
        <path fill="#FFF" stroke="#75A4FE" stroke-linecap="round" d="M74.723 9.851l6.536 47.692.588 4.784a2.807 2.807 0 0 1-2.439 3.133l-41.027 5.037a2.807 2.807 0 0 1-3.124-2.45l-6.338-51.616a1.404 1.404 0 0 1 1.22-1.567l.014-.001 3.404-.382m2.752-.309l3.214-.36"/>
        <path fill="#E8F0FE" d="M72.96 12.843l5.9 43.22.53 4.337c.17 1.397-.806 2.667-2.182 2.836l-36.74 4.527c-1.376.17-2.63-.826-2.8-2.223l-5.711-46.666a1.403 1.403 0 0 1 1.219-1.561l4.546-.56"/>
        <path fill="#FFF" stroke="#75A4FE" d="M44.606.5a2.3 2.3 0 0 0-2.3 2.3v53.45a2.3 2.3 0 0 0 2.3 2.3h41.34a2.3 2.3 0 0 0 2.3-2.3V12.249a2.3 2.3 0 0 0-.671-1.625l-9.423-9.448A2.3 2.3 0 0 0 76.524.5H44.606z"/>
        <path stroke="#75A4FE" stroke-linecap="round" stroke-linejoin="round" d="M76.836 1.69v8.152c0 1.164.941 2.108 2.102 2.108h5.558"/>
        <path stroke="#A4C3FE" stroke-linecap="round" stroke-linejoin="round" d="M50.213 11.95H68.43 50.213zm0 8.436H80.34 50.213zm0 9.139H80.34 50.213zm0 9.138H80.34 50.213zm0 9.139H68.43 50.213z"/>
    </g>
</svg>
