<svg xmlns="http://www.w3.org/2000/svg" width="151" height="85" viewBox="0 0 151 85">
    <g fill="none" fill-rule="evenodd">
        <path fill="#F3F7FF" d="M32.157 63.073a4.9 4.9 0 0 1-4.893-4.905 4.9 4.9 0 0 1 4.893-4.905H4.894A4.9 4.9 0 0 1 0 48.358a4.9 4.9 0 0 1 4.894-4.905h27.962a4.9 4.9 0 0 0 4.894-4.906 4.9 4.9 0 0 0-4.894-4.905H15.38a4.9 4.9 0 0 1-4.894-4.905 4.9 4.9 0 0 1 4.894-4.905h27.963a4.9 4.9 0 0 1-4.894-4.905 4.9 4.9 0 0 1 4.894-4.905H83.19a4.9 4.9 0 0 1 4.893 4.905 4.9 4.9 0 0 1-4.893 4.905h44.74a4.9 4.9 0 0 1 4.894 4.905 4.9 4.9 0 0 1-4.893 4.905h15.38a4.9 4.9 0 0 1 4.893 4.905 4.9 4.9 0 0 1-4.894 4.906h-13.282a4.9 4.9 0 0 0-4.894 4.905 4.9 4.9 0 0 0 4.894 4.905h4.194a4.9 4.9 0 0 1 4.894 4.905 4.9 4.9 0 0 1-4.894 4.905H32.157zm113.95 0a4.9 4.9 0 0 1-4.894-4.905 4.9 4.9 0 0 1 4.893-4.905A4.9 4.9 0 0 1 151 58.168a4.9 4.9 0 0 1-4.894 4.905z"/>
        <path fill="#FFF" stroke="#75A4FE" stroke-linecap="round" d="M97.836 68.753c2.125-1.366 4.014-3.071 5.242-4.448m1.982-2.288a33.234 33.234 0 0 0 6.585-13.33 33.806 33.806 0 0 0-.95-18.906 33.651 33.651 0 0 0-4.1-8.087 34.18 34.18 0 0 0-3.547-4.33 34.02 34.02 0 0 0-6.32-5.147 33.646 33.646 0 0 0-7.668-3.58 33.856 33.856 0 0 0-10.273-1.62 33.7 33.7 0 0 0-8.034.95 33.24 33.24 0 0 0-15.29 8.428 33.351 33.351 0 0 0-6.307 8.366 33.357 33.357 0 0 0-3.292 9.354 33.833 33.833 0 0 0-.396 10.118 33.713 33.713 0 0 0 4.028 12.634 33.984 33.984 0 0 0 5.277 7.117 33.806 33.806 0 0 0 11.449 7.798 33.841 33.841 0 0 0 15.994 2.407 33.374 33.374 0 0 0 13.087-4.015"/>
        <g stroke="#A4C3FE" stroke-linecap="round" stroke-linejoin="round">
            <path d="M111.502.708v4.204M111.502 10.518v4.205M104.512 7.715h4.194M114.299 7.715h4.194"/>
        </g>
        <g stroke="#A4C3FE" stroke-linecap="round" stroke-linejoin="round">
            <path d="M53.48 72.883v2.803M53.48 81.292v2.803M47.887 78.49h2.796M56.275 78.49h2.797"/>
        </g>
        <path fill="#FFF" stroke="#A4C3FE" stroke-linecap="round" d="M68.639 13.13a29.022 29.022 0 0 0-4.165 1.947 29.53 29.53 0 0 0-7.963 6.635M54.502 24.4a29.005 29.005 0 0 0-2.317 4.235"/>
        <path fill="#E8F0FE" fill-rule="nonzero" stroke="#75A4FE" d="M65.7 40.207a2.517 2.517 0 0 0-3.528.158 2.448 2.448 0 0 0 .16 3.486l11.75 10.61a3.524 3.524 0 0 0 4.938-.22c.054-.06.054-.06.107-.122l16.768-19.935a2.448 2.448 0 0 0-.323-3.475 2.517 2.517 0 0 0-3.516.32L76.29 49.77l-10.592-9.563z"/>
    </g>
</svg>
