<svg xmlns="http://www.w3.org/2000/svg" width="151" height="86" viewBox="0 0 151 86">
    <g fill="none" fill-rule="evenodd">
        <path fill="#F3F7FF" d="M95.773 67.582H32.157c-2.702 0-4.893-2.184-4.893-4.877 0-2.694 2.19-4.877 4.893-4.877H4.894C2.19 57.828 0 55.644 0 52.95c0-2.694 2.19-4.877 4.894-4.877h27.962c2.703 0 4.894-2.184 4.894-4.877 0-2.694-2.19-4.877-4.894-4.877H15.38c-2.703 0-4.894-2.184-4.894-4.877 0-2.694 2.191-4.877 4.894-4.877h27.963c-2.703 0-4.894-2.184-4.894-4.877 0-2.694 2.191-4.878 4.894-4.878H83.19c2.702 0 4.893 2.184 4.893 4.878 0 2.693-2.19 4.877-4.893 4.877h44.74c2.703 0 4.894 2.183 4.894 4.877 0 2.693-2.19 4.877-4.893 4.877h15.38c2.702 0 4.893 2.183 4.893 4.877 0 2.693-2.191 4.877-4.894 4.877h-13.282c-2.703 0-4.894 2.183-4.894 4.877 0 2.693 2.191 4.877 4.894 4.877h4.194c2.703 0 4.894 2.183 4.894 4.877 0 2.693-2.191 4.877-4.894 4.877H97.87c-.36 0-.71-.039-1.048-.112a4.928 4.928 0 0 1-1.049.112zm50.333 0c-2.702 0-4.893-2.184-4.893-4.877 0-2.694 2.19-4.877 4.893-4.877S151 60.01 151 62.705c0 2.693-2.19 4.877-4.894 4.877z"/>
        <path fill="#E8F0FE" d="M55.227 20.205h46.838l-4.195 6.27 5.593 4.18H53.829l6.291-4.18z"/>
        <path stroke="#75A4FE" stroke-linecap="round" stroke-linejoin="round" d="M37.05 75.746H52.05 37.05zm-8.998 0h4.804-4.804zm99.968 0h2.008-2.008zm-18.964 0h15.678-15.678z"/>
        <path fill="#FFF" stroke="#75A4FE" stroke-linecap="round" d="M53.134 60.068V32.049c0-1.154.95-2.09 2.123-2.09h48.571c.764 0 1.383.624 1.383 1.393v50.861c0 1.54-1.238 2.787-2.765 2.787H55.899c-1.527 0-2.765-1.248-2.765-2.787V68.975m0-2.858V62.98"/>
        <path stroke="#75A4FE" d="M54.528 29.959v-8.36c0-.77.562-1.394 1.255-1.394h46.425c.693 0 1.255.624 1.255 1.393v8.361"/>
        <ellipse cx="67.461" cy="42.152" fill="#FFF" stroke="#75A4FE" rx="2.447" ry="2.439"/>
        <ellipse cx="90.53" cy="42.152" fill="#FFF" stroke="#75A4FE" rx="2.447" ry="2.439"/>
        <path stroke="#75A4FE" stroke-linecap="round" d="M90.18 44.59c0 6.157-5.007 11.148-11.185 11.148-6.177 0-11.185-4.991-11.185-11.148M55.27 20.9l4.964 4.883a.7.7 0 0 1-.153 1.112l-5.553 3.064M102.84 20.95l-4.751 4.83a.7.7 0 0 0 .165 1.105l5.654 3.074"/>
        <path stroke="#A4C3FE" stroke-linecap="round" stroke-linejoin="round" d="M97.24 2.998l-7.759 8.676 7.76-8.676zM78.996 0v11.674V0zM60.82 2.998l7.76 8.676-7.76-8.676z"/>
    </g>
</svg>
