<svg xmlns="http://www.w3.org/2000/svg" width="64" height="59" viewBox="0 0 64 59">
    <g fill="none" fill-rule="evenodd">
        <path fill="#FBE2CB" d="M59.5 28.191c0-15.188-12.312-27.5-27.5-27.5S4.5 13.003 4.5 28.191c0 9.396 4.715 17.687 11.905 22.647h31.191C54.785 45.878 59.5 37.587 59.5 28.191z"/>
        <path stroke="#2D346A" stroke-linecap="round" stroke-width="1.5" d="M14.206 50.838h35.588"/>
        <path stroke="#C3CCE9" stroke-linecap="round" stroke-linejoin="round" stroke-width="1.5" d="M20.375 54.074h23.25M27.641 57.309h4.673M35.166 57.309h1.249"/>
        <path fill="#C3CCE9" stroke="#2D346A" stroke-linecap="round" stroke-linejoin="round" stroke-width="1.5" d="M28.021 44.291l-8.72-8.72a2.802 2.802 0 1 1 3.964-3.964l14.446 14.446a2.802 2.802 0 1 1-3.964 3.964l-3.73-3.73"/>
        <g transform="translate(14 2)">
            <path fill="#FFF" stroke="#2D346A" stroke-linecap="round" stroke-linejoin="round" stroke-width="1.5" d="M6.003 26.344l-1.611 1.611 9.221 9.222 1.612-1.611 16.36-4.623L10.626 9.984z"/>
            <ellipse cx="23.623" cy="17.944" fill="#E8F3FF" rx="9.238" ry="16.06" transform="rotate(-45 23.623 17.944)"/>
            <path fill="#FFF" stroke="#2D346A" stroke-linecap="round" stroke-linejoin="round" stroke-width="1.5" d="M2.619 29.728a6.521 6.521 0 0 0 9.222 9.222l3.384-3.384c-4.015 0-9.222-5.028-9.222-9.222l-3.384 3.384z"/>
            <path fill="#E4C95C" d="M13.088 19.37a26.396 26.396 0 0 0 4.005 5.106 26.435 26.435 0 0 0 5.106 4.005c2.008-2.559 1.863-6.258-.495-8.616-2.359-2.357-6.057-2.503-8.616-.495z"/>
            <path stroke="#2D346A" stroke-linecap="round" stroke-linejoin="round" stroke-width="1.5" d="M35.484 19.093c-1.101-2.584-2.908-5.262-5.327-7.681-6.272-6.272-14.28-8.431-17.888-4.824-3.608 3.607-1.448 11.616 4.824 17.888 6.272 6.272 14.28 8.431 17.888 4.824 1.662-1.662 2.1-4.258 1.476-7.188"/>
        </g>
        <path fill="#E4C95C" d="M62.4 46.125c.002-.201.071-1.202 1.2-1.202H63.612a.4.4 0 0 0-.01-.8c-.201-.002-1.202-.071-1.202-1.2a.4.4 0 1 0-.8 0c0 1.129-1.001 1.198-1.202 1.2a.4.4 0 0 0 .002.8c1.129 0 1.198 1.002 1.2 1.2V46.135a.4.4 0 0 0 .8-.01zM12.968 22.141c.001-.101.036-.601.6-.601h.005a.2.2 0 0 0-.004-.4c-.101-.001-.601-.036-.601-.6a.2.2 0 0 0-.2-.2.2.2 0 0 0-.2.2c0 .564-.5.599-.601.6a.2.2 0 0 0 .001.4c.565 0 .599.501.6.6v.001a.01.01 0 0 0 .001.003h-.001v.002a.2.2 0 0 0 .4-.005zM60.7 14.347c.001-.101.036-.601.6-.601h.007a.2.2 0 0 0-.005-.4c-.101-.001-.601-.036-.601-.6a.2.2 0 0 0-.2-.2.2.2 0 0 0-.2.2c0 .564-.5.599-.601.6a.2.2 0 0 0 .001.4c.565 0 .599.501.6.6v.006a.2.2 0 0 0 .399-.005zM47.537 41.324c.001-.101.036-.601.6-.601h.007a.2.2 0 0 0-.005-.4c-.101-.001-.601-.036-.601-.6a.2.2 0 0 0-.2-.2.2.2 0 0 0-.2.2c0 .564-.5.599-.601.6a.2.2 0 0 0 .001.4c.565 0 .599.501.6.6v.006a.2.2 0 0 0 .399-.005zM12.908 4.102c.002-.201.072-1.202 1.2-1.202H14.119a.4.4 0 0 0-.01-.8c-.201-.002-1.202-.071-1.202-1.2a.4.4 0 1 0-.8 0c0 1.129-1.001 1.198-1.202 1.2a.4.4 0 0 0 .002.8c1.129 0 1.198 1.002 1.2 1.2V4.112a.4.4 0 0 0 .801-.01zM2.4 44.125c.002-.201.071-1.202 1.2-1.202h.012a.4.4 0 0 0-.01-.8c-.201-.003-1.202-.072-1.202-1.2a.4.4 0 1 0-.8 0c0 1.129-1.001 1.198-1.202 1.2a.4.4 0 0 0 .002.8c1.129 0 1.198 1.002 1.2 1.2V44.135a.4.4 0 0 0 .8-.01z"/>
    </g>
</svg>
