<svg xmlns="http://www.w3.org/2000/svg" width="50" height="68" viewBox="0 0 50 68">
    <defs>
        <linearGradient id="7pzn9yef1a" x1="57.45%" x2="4.346%" y1="59.956%" y2="-43.068%">
            <stop offset="0%" stop-color="#FF2426"/>
            <stop offset="100%" stop-color="#FF9259"/>
        </linearGradient>
        <linearGradient id="zcksxvlqmb" x1="60.727%" x2="-15.742%" y1="59.956%" y2="-43.068%">
            <stop offset="0%" stop-color="#FF2426"/>
            <stop offset="100%" stop-color="#FF9259"/>
        </linearGradient>
    </defs>
    <g fill="none" fill-rule="evenodd">
        <g>
            <g transform="translate(-1069 -588) translate(1069 588)">
                <path fill="url(#7pzn9yef1a)" d="M50 25c0-3.382-.672-6.612-1.895-9.56-1.267-3.06-3.125-5.812-5.427-8.117-2.303-2.303-5.055-4.16-8.118-5.428C31.612.673 28.382 0 25 0c-3.383 0-6.613.673-9.56 1.895-3.063 1.268-5.815 3.125-8.117 5.428-2.303 2.302-4.16 5.055-5.428 8.117C.672 18.388 0 21.618 0 25c0 1.423.133 2.82.375 4.19.685 3.871 2.248 7.511 4.205 10.801 2.147 3.608 4.807 6.86 7.422 9.613 2.193 2.308 4.376 4.288 6.24 5.858 1.32 1.11 2.485 2.02 3.39 2.697.555.418 1.015.748 1.35.985.393.278.633.438.633.438.828.542 1.913.572 2.773 0 0 0 .242-.163.632-.438.335-.237.793-.567 1.35-.985.905-.677 2.07-1.587 3.39-2.697 1.865-1.57 4.047-3.55 6.24-5.858 2.615-2.753 5.275-6.005 7.422-9.613 1.958-3.29 3.52-6.93 4.206-10.8.24-1.37.372-2.768.372-4.19z"/>
                <g fill="#FFF">
                    <path d="M24.844 14.848c-.686-.503-1.302-1.102-1.99-1.6-.534-.387-1.096-.771-1.705-1.01-1.054-.413-2.121-.275-3.084.307-.652.396-1.248.888-1.854 1.355-.085.065-.148.1-.211.097-.065.002-.128-.032-.213-.097-.606-.467-1.2-.959-1.855-1.355-.957-.582-2.029-.72-3.081-.307-.606.239-1.173.623-1.707 1.01-.688.498-1.304 1.097-1.99 1.6-1.493 1.095-2.74 1.017-4.14-.204-.117-.1-.233-.202-.347-.302.206 1.151.66 2.18 1.323 3.116.849 1.192 1.962 2.05 3.358 2.518 3.265 1.1 7.389-.43 8.652-3.318 1.263 2.887 5.387 4.417 8.652 3.318 1.396-.467 2.51-1.326 3.358-2.518.664-.936 1.115-1.965 1.323-3.116l-.346.302c-1.404 1.221-2.648 1.299-4.143.204" transform="translate(9 9)"/>
                </g>
                <circle cx="25" cy="65" r="3" fill="url(#zcksxvlqmb)"/>
            </g>
        </g>
    </g>
</svg>
