<svg xmlns="http://www.w3.org/2000/svg" width="64" height="59" viewBox="0 0 64 59">
    <g fill="none" fill-rule="evenodd">
        <path fill="#FBE2CB" d="M59.5 28.191c0-15.188-12.312-27.5-27.5-27.5S4.5 13.003 4.5 28.191c0 9.396 4.715 17.687 11.905 22.647h31.191C54.785 45.878 59.5 37.587 59.5 28.191z"/>
        <path stroke="#2D346A" stroke-linecap="round" stroke-width="1.5" d="M14.206 50.838h35.588"/>
        <path stroke="#C3CCE9" stroke-linecap="round" stroke-linejoin="round" stroke-width="1.5" d="M20.375 54.074h23.25M27.641 57.309h4.673M35.166 57.309h1.249"/>
        <g stroke-width="1.5" transform="translate(11 6)">
            <path fill="#FFF" stroke="#2D346A" stroke-linecap="round" stroke-linejoin="round" d="M38.794 23.833V2.66H3.206v28.178h35.588v-4.005"/>
            <path fill="#C3CCE9" stroke="#2D346A" stroke-linecap="round" stroke-linejoin="round" d="M3.203 5.16a2.5 2.5 0 1 1 0-5h35.591a2.5 2.5 0 1 1 0 5H6.203"/>
            <path stroke="#2D346A" stroke-linecap="round" d="M2.206 30.838h37.588"/>
            <circle cx="21" cy="38.134" r="2.5" fill="#E4C95C" stroke="#2D346A" stroke-linecap="round" stroke-linejoin="round"/>
            <path stroke="#2D346A" stroke-linejoin="round" d="M21 35.634v-4.796"/>
            <path stroke="#C3CCE9" stroke-linecap="round" stroke-linejoin="round" d="M7.206 26.838h27.588M7.206 26.838V9.16"/>
            <path stroke="#E8F3FF" stroke-linecap="round" stroke-linejoin="round" d="M10.648 17.669h24.146M10.648 11.458h24.146M10.648 22.541h24.146M10.648 16.999h24.146"/>
            <path stroke="#E4C95C" stroke-linecap="round" stroke-linejoin="round" d="M10.648 22.626l5.194-5.778 3.844 4.276 6.501-7.232 3.171 3.528 5.436-6.047"/>
        </g>
        <path fill="#E4C95C" d="M62.4 15.125c.002-.201.071-1.202 1.2-1.202H63.612a.4.4 0 0 0-.01-.8c-.201-.002-1.202-.071-1.202-1.2a.4.4 0 1 0-.8 0c0 1.129-1.001 1.198-1.202 1.2a.4.4 0 0 0 .002.8c1.129 0 1.198 1.002 1.2 1.2V15.135a.4.4 0 0 0 .8-.01zM1.2 38.935c.001-.101.036-.601.6-.601h.005a.2.2 0 0 0-.004-.4c-.101-.002-.601-.036-.601-.6a.2.2 0 0 0-.2-.2.2.2 0 0 0-.2.2c0 .564-.5.599-.601.6a.2.2 0 0 0 .001.4c.565 0 .599.501.6.6v.001a.01.01 0 0 0 .001.003H.8v.002a.2.2 0 0 0 .4-.005zM54.994 26.566c.001-.101.036-.601.6-.601h.007a.2.2 0 0 0-.005-.4c-.101-.001-.601-.036-.601-.6a.2.2 0 0 0-.2-.2.2.2 0 0 0-.2.2c0 .564-.5.599-.601.6a.2.2 0 0 0 .001.4c.565 0 .599.501.6.6v.006a.2.2 0 0 0 .399-.005zM6.9 9.194c.002-.201.071-1.202 1.2-1.202h.012a.4.4 0 0 0-.01-.8C7.901 7.19 6.9 7.121 6.9 5.992a.4.4 0 1 0-.8 0c0 1.129-1.001 1.198-1.202 1.2a.4.4 0 0 0 .002.8c1.129 0 1.198 1.002 1.2 1.2V9.204a.4.4 0 0 0 .8-.01zM20.775 45.151c.002-.201.071-1.202 1.2-1.202H21.986a.4.4 0 0 0-.01-.8c-.201-.002-1.202-.071-1.202-1.2a.4.4 0 1 0-.8 0c0 1.129-1.001 1.198-1.202 1.2a.4.4 0 0 0 .002.8c1.129 0 1.198 1.002 1.2 1.2V45.161a.4.4 0 0 0 .801-.01z"/>
    </g>
</svg>
