<svg xmlns="http://www.w3.org/2000/svg" xmlns:xlink="http://www.w3.org/1999/xlink" width="18" height="18" viewBox="0 0 18 18">
    <defs>
        <rect id="prefix__a" width="18" height="18" x="0" y="0" rx="2.25"/>
    </defs>
    <g fill="none" fill-rule="evenodd">
        <mask id="prefix__b" fill="#fff">
            <use xlink:href="#prefix__a"/>
        </mask>
        <use fill="#FFF" xlink:href="#prefix__a"/>
        <g mask="url(#prefix__b)">
            <g>
                <path fill="#0E4DC5" d="M9 0H18V2.25H9zM9 3.938H18V6.188000000000001H9zM0 7.875H18V10.125H0zM0 11.813H18V14.063H0z" transform="translate(0 2.25)"/>
                <path fill="#FED443" d="M5.532 0l.19 1.256L6.886.613l-.409 1.209 1.345-.105-.926.923 1.26.454-1.26.454.926.923-1.345-.106.409 1.21-1.164-.644-.19 1.256-.75-1.054-.752 1.054-.19-1.256-1.163.644.408-1.21-1.345.106.926-.923-1.26-.454 1.26-.454-.926-.923 1.345.105-.408-1.21 1.163.644L4.03 0l.751 1.054L5.532 0zm-.75 1.074c-1.187 0-2.148.904-2.148 2.02 0 1.115.961 2.02 2.147 2.02s2.148-.905 2.148-2.02c0-1.116-.962-2.02-2.148-2.02zm0 .367c.931 0 1.687.71 1.687 1.586 0 .877-.756 1.587-1.688 1.587-.932 0-1.687-.71-1.687-1.587 0-.876.755-1.586 1.687-1.586z" transform="translate(0 2.25)"/>
            </g>
        </g>
    </g>
</svg>
